STARTFONT 2.1
FONT -JDECW-Mincho-Medium-R-Normal--12-120-75-75-M-120-JISX0208.1983-1.3
SIZE 12 75 75
FONTBOUNDINGBOX 14 14 0 -2

STARTPROPERTIES 26
FONTNAME_REGISTRY ""
FAMILY_NAME "Mincho"
FOUNDRY "JDECW"
WEIGHT_NAME "Medium"
SLANT "R"
SETWIDTH_NAME "Normal"
ADD_STYLE_NAME ""
PIXEL_SIZE 12
POINT_SIZE 120
RESOLUTION_X 75
RESOLUTION_Y 75
SPACING "M"
AVERAGE_WIDTH 120
CHARSET_REGISTRY "JISX0208.1983"
CHARSET_ENCODING "1"
DEVICE_FONT_NAME "Mincho-JISX0208.1983-1"
CHARSET_COLLECTIONS "JISX0208.1983 1"
FULL_NAME "Mincho-JISX0208.1983-1"
COPYRIGHT "Copyright (c) 1990 1991 TYPEBANK, Digital Equipment Corporation Japan"
CAP_HEIGHT 10
X_HEIGHT 7
WEIGHT 10
QUAD_WIDTH 14
DEFAULT_CHAR 41634
FONT_DESCENT 2
FONT_ASCENT 12
ENDPROPERTIES

CHARS 59

STARTCHAR Ca1a2
ENCODING 41378
SWIDTH 1000 0
DWIDTH 14 0
BBX 14 14 0 -2
BITMAP
0000
0020
0010
0008
0000
0000
0000
0000
0000
0000
0000
0000
0000
0000
ENDCHAR

STARTCHAR Ca1a3
ENCODING 41379
SWIDTH 1000 0
DWIDTH 14 0
BBX 14 14 0 -2
BITMAP
0000
0030
0048
0048
0030
0000
0000
0000
0000
0000
0000
0000
0000
0000
ENDCHAR

STARTCHAR Ca1a4
ENCODING 41380
SWIDTH 1000 0
DWIDTH 14 0
BBX 14 14 0 -2
BITMAP
0000
0018
0018
0008
0010
0000
0000
0000
0000
0000
0000
0000
0000
0000
ENDCHAR

STARTCHAR Ca1a5
ENCODING 41381
SWIDTH 1000 0
DWIDTH 14 0
BBX 14 14 0 -2
BITMAP
0000
0030
0030
0000
0000
0000
0000
0000
0000
0000
0000
0000
0000
0000
ENDCHAR

STARTCHAR Ca1b1
ENCODING 41393
SWIDTH 1000 0
DWIDTH 14 0
BBX 14 14 0 -2
BITMAP
0000
0008
0008
0008
0008
0008
0008
0008
0008
0008
0008
0008
0008
0000
ENDCHAR

STARTCHAR Ca1b2
ENCODING 41394
SWIDTH 1000 0
DWIDTH 14 0
BBX 14 14 0 -2
BITMAP
0000
4000
4000
4000
4000
4000
4000
4000
4000
4000
4000
4000
4000
0000
ENDCHAR

STARTCHAR Ca1bc
ENCODING 41404
SWIDTH 1000 0
DWIDTH 14 0
BBX 14 14 0 -2
BITMAP
0000
0000
0200
0100
0100
0100
0100
0100
0100
0100
0100
0100
0000
0000
ENDCHAR

STARTCHAR Ca1bd
ENCODING 41405
SWIDTH 1000 0
DWIDTH 14 0
BBX 14 14 0 -2
BITMAP
0000
0200
0200
0200
0200
0200
0200
0200
0200
0200
0200
0200
0200
0000
ENDCHAR

STARTCHAR Ca1be
ENCODING 41406
SWIDTH 1000 0
DWIDTH 14 0
BBX 14 14 0 -2
BITMAP
0000
0000
0000
0000
0200
0200
0200
0200
0200
0200
0000
0000
0000
0000
ENDCHAR

STARTCHAR Ca1c1
ENCODING 41409
SWIDTH 1000 0
DWIDTH 14 0
BBX 14 14 0 -2
BITMAP
0000
0000
0080
0100
0200
0200
0100
0100
0080
0080
0100
0200
0000
0000
ENDCHAR

STARTCHAR Ca1c2
ENCODING 41410
SWIDTH 1000 0
DWIDTH 14 0
BBX 14 14 0 -2
BITMAP
0000
0000
0000
0000
0000
7FF8
0000
0000
7FF8
0000
0000
0000
0000
0000
ENDCHAR

STARTCHAR Ca1c3
ENCODING 41411
SWIDTH 1000 0
DWIDTH 14 0
BBX 14 14 0 -2
BITMAP
0000
0000
0000
0000
0000
0000
7FF8
0000
0000
0000
0000
0000
0000
0000
ENDCHAR

STARTCHAR Ca1c4
ENCODING 41412
SWIDTH 1000 0
DWIDTH 14 0
BBX 14 14 0 -2
BITMAP
0000
0000
0600
0600
0000
0000
0600
0600
0000
0000
0600
0600
0000
0000
ENDCHAR

STARTCHAR Ca1c5
ENCODING 41413
SWIDTH 1000 0
DWIDTH 14 0
BBX 14 14 0 -2
BITMAP
0000
0000
0000
0600
0600
0000
0000
0000
0000
0600
0600
0000
0000
0000
ENDCHAR

STARTCHAR Ca1c6
ENCODING 41414
SWIDTH 1000 0
DWIDTH 14 0
BBX 14 14 0 -2
BITMAP
0000
0000
0000
0000
0000
0000
0000
0000
0000
0000
0000
0070
0068
0000
ENDCHAR

STARTCHAR Ca1c7
ENCODING 41415
SWIDTH 1000 0
DWIDTH 14 0
BBX 14 14 0 -2
BITMAP
0000
0058
0038
0000
0000
0000
0000
0000
0000
0000
0000
0000
0000
0000
ENDCHAR

STARTCHAR Ca1c8
ENCODING 41416
SWIDTH 1000 0
DWIDTH 14 0
BBX 14 14 0 -2
BITMAP
0000
0000
0000
0000
0000
0000
0000
0000
0070
0068
0000
0070
0068
0000
ENDCHAR

STARTCHAR Ca1c9
ENCODING 41417
SWIDTH 1000 0
DWIDTH 14 0
BBX 14 14 0 -2
BITMAP
0000
0058
0038
0000
0058
0038
0000
0000
0000
0000
0000
0000
0000
0000
ENDCHAR

STARTCHAR Ca1ca
ENCODING 41418
SWIDTH 1000 0
DWIDTH 14 0
BBX 14 14 0 -2
BITMAP
0000
0000
0000
0000
0000
0000
0000
0000
0000
0FC0
3030
4008
0000
0000
ENDCHAR

STARTCHAR Ca1cb
ENCODING 41419
SWIDTH 1000 0
DWIDTH 14 0
BBX 14 14 0 -2
BITMAP
0000
0000
4008
3030
0FC0
0000
0000
0000
0000
0000
0000
0000
0000
0000
ENDCHAR

STARTCHAR Ca1cc
ENCODING 41420
SWIDTH 1000 0
DWIDTH 14 0
BBX 14 14 0 -2
BITMAP
0000
0000
0000
0000
0000
0000
0000
0000
0000
1FE0
2010
4008
0000
0000
ENDCHAR

STARTCHAR Ca1cd
ENCODING 41421
SWIDTH 1000 0
DWIDTH 14 0
BBX 14 14 0 -2
BITMAP
0000
0000
4008
2010
1FE0
0000
0000
0000
0000
0000
0000
0000
0000
0000
ENDCHAR

STARTCHAR Ca1ce
ENCODING 41422
SWIDTH 1000 0
DWIDTH 14 0
BBX 14 14 0 -2
BITMAP
0000
0000
0000
0000
0000
0000
0000
0000
0000
7FF8
4008
4008
0000
0000
ENDCHAR

STARTCHAR Ca1cf
ENCODING 41423
SWIDTH 1000 0
DWIDTH 14 0
BBX 14 14 0 -2
BITMAP
0000
0000
4008
4008
7FF8
0000
0000
0000
0000
0000
0000
0000
0000
0000
ENDCHAR

STARTCHAR Ca1d0
ENCODING 41424
SWIDTH 1000 0
DWIDTH 14 0
BBX 14 14 0 -2
BITMAP
0000
0000
0000
0000
0000
0000
0000
0000
0100
3EF0
4008
4008
0000
0000
ENDCHAR

STARTCHAR Ca1d1
ENCODING 41425
SWIDTH 1000 0
DWIDTH 14 0
BBX 14 14 0 -2
BITMAP
0000
0000
4008
4008
3EF0
0100
0000
0000
0000
0000
0000
0000
0000
0000
ENDCHAR

STARTCHAR Ca1d2
ENCODING 41426
SWIDTH 1000 0
DWIDTH 14 0
BBX 14 14 0 -2
BITMAP
0000
0000
0000
0000
0000
0000
0300
0480
0840
1020
2010
4008
0000
0000
ENDCHAR

STARTCHAR Ca1d3
ENCODING 41427
SWIDTH 1000 0
DWIDTH 14 0
BBX 14 14 0 -2
BITMAP
0000
0000
4008
2010
1020
0840
0480
0300
0000
0000
0000
0000
0000
0000
ENDCHAR

STARTCHAR Ca1d4
ENCODING 41428
SWIDTH 1000 0
DWIDTH 14 0
BBX 14 14 0 -2
BITMAP
0000
0000
0000
0300
0480
0840
1320
2490
4848
1020
2010
4008
0000
0000
ENDCHAR

STARTCHAR Ca1d5
ENCODING 41429
SWIDTH 1000 0
DWIDTH 14 0
BBX 14 14 0 -2
BITMAP
0000
0000
4008
2010
1020
4848
2490
1320
0840
0480
0300
0000
0000
0000
ENDCHAR

STARTCHAR Ca1d6
ENCODING 41430
SWIDTH 1000 0
DWIDTH 14 0
BBX 14 14 0 -2
BITMAP
0000
0000
0000
0000
0000
0000
0000
0000
1FF8
0008
0008
0008
0000
0000
ENDCHAR

STARTCHAR Ca1d7
ENCODING 41431
SWIDTH 1000 0
DWIDTH 14 0
BBX 14 14 0 -2
BITMAP
0000
0000
4000
4000
4000
7FE0
0000
0000
0000
0000
0000
0000
0000
0000
ENDCHAR

STARTCHAR Ca1d8
ENCODING 41432
SWIDTH 1000 0
DWIDTH 14 0
BBX 14 14 0 -2
BITMAP
0000
0000
0000
0000
0000
0000
1FF8
1008
1FE8
0028
0028
0038
0000
0000
ENDCHAR

STARTCHAR Ca1d9
ENCODING 41433
SWIDTH 1000 0
DWIDTH 14 0
BBX 14 14 0 -2
BITMAP
0000
0000
7000
5000
5000
5FE0
4020
7FE0
0000
0000
0000
0000
0000
0000
ENDCHAR

STARTCHAR Ca1da
ENCODING 41434
SWIDTH 1000 0
DWIDTH 14 0
BBX 14 14 0 -2
BITMAP
0000
0000
0000
0000
0000
0000
0000
0000
7FF8
7FF8
7038
4008
0000
0000
ENDCHAR

STARTCHAR Ca1db
ENCODING 41435
SWIDTH 1000 0
DWIDTH 14 0
BBX 14 14 0 -2
BITMAP
0000
0000
4008
7038
7FF8
7FF8
0000
0000
0000
0000
0000
0000
0000
0000
ENDCHAR

STARTCHAR Ca2a2
ENCODING 41634
SWIDTH 1000 0
DWIDTH 14 0
BBX 14 14 0 -2
BITMAP
0000
0000
0000
3FE0
2020
2020
2020
2020
2020
2020
2020
3FE0
0000
0000
ENDCHAR

STARTCHAR Ca4a1
ENCODING 42145
SWIDTH 1000 0
DWIDTH 14 0
BBX 14 14 0 -2
BITMAP
0000
0200
0200
0FC0
0200
03E0
0650
0A88
1308
1208
0C10
00E0
0000
0000
ENDCHAR

STARTCHAR Ca4a3
ENCODING 42147
SWIDTH 1000 0
DWIDTH 14 0
BBX 14 14 0 -2
BITMAP
0000
0000
0000
1040
0820
0820
0810
0A10
0400
0400
0000
0000
0000
0000
ENDCHAR

STARTCHAR Ca4a5
ENCODING 42149
SWIDTH 1000 0
DWIDTH 14 0
BBX 14 14 0 -2
BITMAP
0000
0000
0040
0030
0000
0070
0188
0008
0008
0008
0010
0060
0000
0000
ENDCHAR

STARTCHAR Ca4a7
ENCODING 42151
SWIDTH 1000 0
DWIDTH 14 0
BBX 14 14 0 -2
BITMAP
0000
0000
0100
00C0
0000
03E0
0040
0080
0140
0240
0438
0000
0000
0000
ENDCHAR

STARTCHAR Ca4a9
ENCODING 42153
SWIDTH 1000 0
DWIDTH 14 0
BBX 14 14 0 -2
BITMAP
0000
0000
0600
0200
0F90
0208
07C0
0A20
1220
1220
0CC0
0000
0000
0000
ENDCHAR

STARTCHAR Ca4c3
ENCODING 42179
SWIDTH 1000 0
DWIDTH 14 0
BBX 14 14 0 -2
BITMAP
0000
0000
0000
0000
01E0
0E10
0010
0010
0060
0380
0000
0000
0000
0000
ENDCHAR

STARTCHAR Ca4e3
ENCODING 42211
SWIDTH 1000 0
DWIDTH 14 0
BBX 14 14 0 -2
BITMAP
0000
0000
0100
0C80
04F0
0308
1E08
0170
0100
0080
0080
0000
0000
0000
ENDCHAR

STARTCHAR Ca4e5
ENCODING 42213
SWIDTH 1000 0
DWIDTH 14 0
BBX 14 14 0 -2
BITMAP
0000
0000
0040
0440
04F0
0548
0648
0448
04F0
0040
0080
0000
0000
0000
ENDCHAR

STARTCHAR Ca4e7
ENCODING 42215
SWIDTH 1000 0
DWIDTH 14 0
BBX 14 14 0 -2
BITMAP
0000
0000
00C0
0040
0078
0040
0040
0040
03C0
0470
0388
0000
0000
0000
ENDCHAR

STARTCHAR Ca4ee
ENCODING 42222
SWIDTH 1000 0
DWIDTH 14 0
BBX 14 14 0 -2
BITMAP
0000
0000
0200
0200
0EF0
0308
0208
0608
0A08
0210
0260
0000
0000
0000
ENDCHAR

STARTCHAR Ca5a1
ENCODING 42401
SWIDTH 1000 0
DWIDTH 14 0
BBX 14 14 0 -2
BITMAP
0000
0000
0000
03F8
0008
0050
0060
0040
0040
0080
0100
0000
0000
0000
ENDCHAR

STARTCHAR Ca5a3
ENCODING 42403
SWIDTH 1000 0
DWIDTH 14 0
BBX 14 14 0 -2
BITMAP
0000
0000
0008
0008
0010
0020
00E0
0320
0020
0020
0020
0000
0000
0000
ENDCHAR

STARTCHAR Ca5a5
ENCODING 42405
SWIDTH 1000 0
DWIDTH 14 0
BBX 14 14 0 -2
BITMAP
0000
0000
0040
0040
03F8
0208
0208
0208
0010
0020
00C0
0000
0000
0000
ENDCHAR

STARTCHAR Ca5a7
ENCODING 42407
SWIDTH 1000 0
DWIDTH 14 0
BBX 14 14 0 -2
BITMAP
0000
0000
0000
0000
0FE0
0100
0100
0100
0100
1FF0
0000
0000
0000
0000
ENDCHAR

STARTCHAR Ca5a9
ENCODING 42409
SWIDTH 1000 0
DWIDTH 14 0
BBX 14 14 0 -2
BITMAP
0000
0000
0060
0020
07F8
00A0
00A0
0120
0220
04A0
0060
0000
0000
0000
ENDCHAR

STARTCHAR Ca5c3
ENCODING 42435
SWIDTH 1000 0
DWIDTH 14 0
BBX 14 14 0 -2
BITMAP
0000
0000
0000
0118
0488
0288
0210
0010
0020
00C0
0300
0000
0000
0000
ENDCHAR

STARTCHAR Ca5e3
ENCODING 42467
SWIDTH 1000 0
DWIDTH 14 0
BBX 14 14 0 -2
BITMAP
0000
0000
0100
0100
00F8
0788
0090
0080
0040
0040
0040
0000
0000
0000
ENDCHAR

STARTCHAR Ca5e5
ENCODING 42469
SWIDTH 1000 0
DWIDTH 14 0
BBX 14 14 0 -2
BITMAP
0000
0000
0000
0000
07C0
0040
0040
0040
0040
0FF0
0000
0000
0000
0000
ENDCHAR

STARTCHAR Ca5e7
ENCODING 42471
SWIDTH 1000 0
DWIDTH 14 0
BBX 14 14 0 -2
BITMAP
0000
0000
0000
07E0
0020
0020
07E0
0020
0020
07F0
0000
0000
0000
0000
ENDCHAR

STARTCHAR Ca5ee
ENCODING 42478
SWIDTH 1000 0
DWIDTH 14 0
BBX 14 14 0 -2
BITMAP
0000
0000
0000
03F8
0208
0208
0208
0010
0010
0020
00C0
0000
0000
0000
ENDCHAR

STARTCHAR Ca5f5
ENCODING 42485
SWIDTH 1000 0
DWIDTH 14 0
BBX 14 14 0 -2
BITMAP
0000
0000
00C0
0040
03F8
0088
0088
0108
0110
0250
0420
0000
0000
0000
ENDCHAR

STARTCHAR Ca5f6
ENCODING 42486
SWIDTH 1000 0
DWIDTH 14 0
BBX 14 14 0 -2
BITMAP
0000
0000
0300
0100
01F8
0220
0420
0040
0040
0080
0300
0000
0000
0000
ENDCHAR
ENDFONT
